<svg width="101" height="101" viewBox="0 0 101 101" fill="none" xmlns="http://www.w3.org/2000/svg">
<rect x="0.386719" y="0.679199" width="100" height="100" rx="15" fill="#49D3FF"/>
<path d="M78.7794 53.9469C70.1292 48.7293 60.2623 51.3533 56.4102 53.3176C60.1174 35.4679 69.7021 38.7098 74.031 42.562C78.1044 47.7796 78.8939 52.3259 78.7794 53.9469Z" fill="white"/>
<path d="M70.5415 46.9068C72.0061 44.5726 73.669 43.3789 74.3174 43.0737L75.9765 45.1905L78.4938 50.7971L78.837 54.1726L75.29 52.3418L69.5117 50.7971V49.4813C73.5851 48.9778 71.8955 47.5552 70.5415 46.9068Z" fill="black"/>
<path d="M59.0105 50.4017C59.3157 46.6103 62.641 42.1957 64.3066 40.5597C61.3902 41.4427 58.124 46.541 57.099 52.4607C60.804 50.9013 65.6797 50.2283 68.1397 50.4571C64.5181 48.7953 60.4559 49.7031 59.0105 50.4017Z" fill="#E6E6E6"/>
<path d="M61.8477 29.2264C59.0563 28.7138 57.4242 26.648 56.957 25.6792C56.363 30.2747 57.3586 32.5085 57.9306 33.051C59.662 35.5918 62.3091 35.8538 63.4162 35.6672L66.1202 35.5671C66.1202 35.5671 66.1266 35.5351 66.2997 35.5448C68.8395 35.6868 70.694 36.0362 71.3036 36.1973C75.172 36.9257 79.4591 39.9513 81.1192 41.3731C80.8252 35.1527 76.1595 32.0551 73.8634 31.2839C73.6033 30.9517 70.5389 30.501 69.0392 30.3173C67.8051 30.1672 64.639 29.739 61.8477 29.2264Z" fill="black"/>
<path d="M38.9962 29.8656C41.819 29.5722 43.6072 27.6399 44.1484 26.7104C44.3824 31.3382 43.2157 33.4877 42.6032 33.9839C40.6789 36.382 38.0195 36.4368 36.9303 36.1645L34.2423 35.8539C34.2423 35.8539 34.2384 35.8215 34.0651 35.8176C31.5219 35.7612 29.6458 35.9651 29.0256 36.0781C25.1122 36.5027 20.6022 39.1849 18.8364 40.4729C19.6144 34.2944 24.5073 31.5699 26.8565 30.9801C27.1418 30.6691 30.232 30.4588 31.7414 30.3925C32.9835 30.3391 36.1734 30.159 38.9962 29.8656Z" fill="black"/>
<path d="M63.6774 63.2125C50.908 71.1304 37.7039 66.9311 32.6693 63.8418C25.6897 60.6952 24.2213 66.1874 24.5455 68.1326C25.4151 70.1921 27.2725 71.5461 28.0925 71.9657C51.4344 79.8836 66.7668 73.3196 71.5152 69.0479C75.2682 65.1576 72.4688 62.7738 70.5999 62.0683C68.4488 61.1529 65.0886 62.4497 63.6774 63.2125Z" fill="black"/>
<path d="M34.0411 70.0779C29.8762 68.2471 28.3201 64.7004 28.1484 63.4989C31.4666 63.2701 31.7908 64.1664 32.7825 64.5287C33.4118 64.9864 38.0649 66.7978 40.3915 67.4462C44.1902 68.5446 49.9075 68.1711 52.4629 67.8469C57.772 67.2062 61.2733 65.2725 63.3329 64.0137C65.6785 62.2975 68.7106 62.1257 70.3125 62.4689C69.3056 65.7642 67.1469 67.3699 66.1362 67.8467C53.6414 73.8423 39.5333 71.8323 34.0411 70.0779Z" fill="white"/>
<path d="M33.1823 70.4227C31.855 70.2396 29.6353 71.0329 28.6055 71.6813C32.45 72.6424 34.3837 73.3837 38.2168 74.3129C43.7662 75.6582 54.5981 75.3428 58.0116 74.5418C62.8745 73.5692 68.3095 70.9375 70.884 69.1068C69.0533 67.7337 67.1081 68.1915 66.1927 68.4203C52.8284 74.6448 38.6173 72.3488 33.1823 70.4227Z" fill="white"/>
<path d="M41.4223 52.9692C34.0078 49.1705 24.4498 50.8525 20.5977 52.1683C25.6322 35.2798 35.0147 38.5713 39.0766 42.3281C42.4177 45.8522 42.0325 50.8906 41.4223 52.9692Z" fill="white"/>
<path d="M33.8713 46.9028C35.2901 44.3398 37.8188 42.7456 38.9058 42.2688L40.9654 45.2437L41.7663 48.6192L41.3658 52.5667H40.6793L37.7044 51.4797L33.0703 50.5071V49.4201C37.281 48.8709 35.3587 47.5131 33.8713 46.9028Z" fill="black"/>
<path d="M23.4019 49.5955C24.0427 45.8425 27.8071 41.6432 29.6379 40.1558C26.6057 40.7851 22.8413 45.6708 21.2852 51.4834C25.1755 50.2477 30.3816 50.1295 32.4984 50.2248C28.9742 48.2568 24.9276 49.0234 23.4019 49.5955Z" fill="#E6E6E6"/>
</svg>
