<svg width="101" height="101" viewBox="0 0 101 101" fill="none" xmlns="http://www.w3.org/2000/svg">
<rect x="0.386719" y="0.787354" width="100" height="100" rx="15" fill="#FFE100"/>
<path d="M78.7794 54.055C70.1292 48.8374 60.2623 51.4615 56.4102 53.4257C60.1174 35.5761 69.7021 38.818 74.031 42.6702C78.1044 47.8878 78.8939 52.4341 78.7794 54.055Z" fill="white"/>
<path d="M70.5415 47.015C72.0061 44.6808 73.669 43.487 74.3174 43.1819L75.9765 45.2987L78.4938 50.9053L78.837 54.2807L75.29 52.45L69.5117 50.9053V49.5895C73.5851 49.086 71.8955 47.6634 70.5415 47.015Z" fill="black"/>
<path d="M59.0105 50.5099C59.3157 46.7185 62.641 42.3039 64.3066 40.6679C61.3902 41.5509 58.124 46.6491 57.099 52.5689C60.804 51.0094 65.6797 50.3364 68.1397 50.5653C64.5181 48.9035 60.4559 49.8112 59.0105 50.5099Z" fill="#E6E6E6"/>
<path d="M61.8477 29.3346C59.0563 28.8219 57.4242 26.7562 56.957 25.7874C56.363 30.3828 57.3586 32.6167 57.9306 33.1592C59.662 35.7 62.3091 35.9619 63.4162 35.7753L66.1202 35.6753C66.1202 35.6753 66.1266 35.6432 66.2997 35.6529C68.8395 35.7949 70.694 36.1444 71.3036 36.3054C75.172 37.0338 79.4591 40.0595 81.1192 41.4812C80.8252 35.2608 76.1595 32.1632 73.8634 31.392C73.6033 31.0598 70.5389 30.6092 69.0392 30.4254C67.8051 30.2754 64.639 29.8472 61.8477 29.3346Z" fill="black"/>
<path d="M38.9962 29.9737C41.819 29.6803 43.6072 27.7481 44.1484 26.8186C44.3824 31.4464 43.2157 33.5958 42.6032 34.0921C40.6789 36.4902 38.0195 36.545 36.9303 36.2726L34.2423 35.9621C34.2423 35.9621 34.2384 35.9296 34.0651 35.9258C31.5219 35.8694 29.6458 36.0732 29.0256 36.1862C25.1122 36.6108 20.6022 39.2931 18.8364 40.5811C19.6144 34.4025 24.5073 31.6781 26.8565 31.0882C27.1418 30.7773 30.232 30.5669 31.7414 30.5006C32.9835 30.4473 36.1734 30.2672 38.9962 29.9737Z" fill="black"/>
<path d="M63.6774 63.3206C50.908 71.2385 37.7039 67.0393 32.6693 63.9499C25.6897 60.8033 24.2213 66.2956 24.5455 68.2407C25.4151 70.3003 27.2725 71.6543 28.0925 72.0738C51.4344 79.9917 66.7668 73.4278 71.5152 69.1561C75.2682 65.2658 72.4688 62.882 70.5999 62.1764C68.4488 61.261 65.0886 62.5578 63.6774 63.3206Z" fill="black"/>
<path d="M34.0411 70.186C29.8762 68.3553 28.3201 64.8085 28.1484 63.6071C31.4666 63.3783 31.7908 64.2746 32.7825 64.6369C33.4118 65.0946 38.0649 66.9059 40.3915 67.5543C44.1902 68.6528 49.9075 68.2793 52.4629 67.9551C57.772 67.3144 61.2733 65.3806 63.3329 64.1219C65.6785 62.4057 68.7106 62.2339 70.3125 62.5771C69.3056 65.8724 67.1469 67.4781 66.1362 67.9548C53.6414 73.9505 39.5333 71.9405 34.0411 70.186Z" fill="white"/>
<path d="M33.1823 70.5308C31.855 70.3478 29.6353 71.1411 28.6055 71.7895C32.45 72.7506 34.3837 73.4918 38.2168 74.4211C43.7662 75.7664 54.5981 75.4509 58.0116 74.65C62.8745 73.6773 68.3095 71.0457 70.884 69.2149C69.0533 67.8419 67.1081 68.2996 66.1927 68.5285C52.8284 74.753 38.6173 72.4569 33.1823 70.5308Z" fill="white"/>
<path d="M41.4223 53.0774C34.0078 49.2786 24.4498 50.9606 20.5977 52.2765C25.6322 35.3879 35.0147 38.6794 39.0766 42.4362C42.4177 45.9604 42.0325 50.9987 41.4223 53.0774Z" fill="white"/>
<path d="M33.8713 47.011C35.2901 44.448 37.8188 42.8537 38.9058 42.377L40.9654 45.3519L41.7663 48.7273L41.3658 52.6748H40.6793L37.7044 51.5878L33.0703 50.6153V49.5283C37.281 48.979 35.3587 47.6212 33.8713 47.011Z" fill="black"/>
<path d="M23.4019 49.7036C24.0427 45.9506 27.8071 41.7514 29.6379 40.2639C26.6057 40.8932 22.8413 45.779 21.2852 51.5916C25.1755 50.3558 30.3816 50.2376 32.4984 50.333C28.9742 48.3649 24.9276 49.1315 23.4019 49.7036Z" fill="#E6E6E6"/>
</svg>
