<svg width="101" height="101" viewBox="0 0 101 101" fill="none" xmlns="http://www.w3.org/2000/svg">
<rect x="0.386719" y="0.841309" width="100" height="100" rx="15" fill="#FF6B20"/>
<path d="M78.7794 54.109C70.1292 48.8914 60.2623 51.5155 56.4102 53.4797C60.1174 35.63 69.7021 38.8719 74.031 42.7241C78.1044 47.9417 78.8939 52.488 78.7794 54.109Z" fill="white"/>
<path d="M70.5415 47.0689C72.0061 44.7348 73.669 43.541 74.3174 43.2358L75.9765 45.3526L78.4938 50.9593L78.837 54.3347L75.29 52.5039L69.5117 50.9593V49.6434C73.5851 49.14 71.8955 47.7173 70.5415 47.0689Z" fill="black"/>
<path d="M59.0105 50.5639C59.3157 46.7724 62.641 42.3578 64.3066 40.7218C61.3902 41.6049 58.124 46.7031 57.099 52.6228C60.804 51.0634 65.6797 50.3904 68.1397 50.6192C64.5181 48.9574 60.4559 49.8652 59.0105 50.5639Z" fill="#E6E6E6"/>
<path d="M61.8477 29.3885C59.0563 28.8759 57.4242 26.8101 56.957 25.8413C56.363 30.4368 57.3586 32.6706 57.9306 33.2131C59.662 35.7539 62.3091 36.0159 63.4162 35.8293L66.1202 35.7292C66.1202 35.7292 66.1266 35.6972 66.2997 35.7069C68.8395 35.8489 70.694 36.1983 71.3036 36.3594C75.172 37.0878 79.4591 40.1134 81.1192 41.5352C80.8252 35.3148 76.1595 32.2172 73.8634 31.446C73.6033 31.1138 70.5389 30.6631 69.0392 30.4794C67.8051 30.3293 64.639 29.9011 61.8477 29.3885Z" fill="black"/>
<path d="M38.9962 30.0277C41.819 29.7343 43.6072 27.802 44.1484 26.8726C44.3824 31.5003 43.2157 33.6498 42.6032 34.146C40.6789 36.5441 38.0195 36.5989 36.9303 36.3266L34.2423 36.0161C34.2423 36.0161 34.2384 35.9836 34.0651 35.9798C31.5219 35.9233 29.6458 36.1272 29.0256 36.2402C25.1122 36.6648 20.6022 39.347 18.8364 40.635C19.6144 34.4565 24.5073 31.7321 26.8565 31.1422C27.1418 30.8313 30.232 30.6209 31.7414 30.5546C32.9835 30.5012 36.1734 30.3211 38.9962 30.0277Z" fill="black"/>
<path d="M63.6774 63.3746C50.908 71.2925 37.7039 67.0932 32.6693 64.0039C25.6897 60.8573 24.2213 66.3495 24.5455 68.2947C25.4151 70.3542 27.2725 71.7082 28.0925 72.1278C51.4344 80.0457 66.7668 73.4817 71.5152 69.21C75.2682 65.3197 72.4688 62.936 70.5999 62.2304C68.4488 61.315 65.0886 62.6118 63.6774 63.3746Z" fill="black"/>
<path d="M34.0411 70.24C29.8762 68.4092 28.3201 64.8625 28.1484 63.6611C31.4666 63.4322 31.7908 64.3285 32.7825 64.6908C33.4118 65.1485 38.0649 66.9599 40.3915 67.6083C44.1902 68.7067 49.9075 68.3332 52.4629 68.0091C57.772 67.3683 61.2733 65.4346 63.3329 64.1758C65.6785 62.4596 68.7106 62.2878 70.3125 62.631C69.3056 65.9264 67.1469 67.532 66.1362 68.0088C53.6414 74.0044 39.5333 71.9944 34.0411 70.24Z" fill="white"/>
<path d="M33.1823 70.5848C31.855 70.4017 29.6353 71.195 28.6055 71.8434C32.45 72.8045 34.3837 73.5458 38.2168 74.475C43.7662 75.8203 54.5981 75.5049 58.0116 74.7039C62.8745 73.7313 68.3095 71.0996 70.884 69.2689C69.0533 67.8958 67.1081 68.3536 66.1927 68.5824C52.8284 74.8069 38.6173 72.5109 33.1823 70.5848Z" fill="white"/>
<path d="M41.4223 53.1314C34.0078 49.3326 24.4498 51.0146 20.5977 52.3304C25.6322 35.4419 35.0147 38.7334 39.0766 42.4902C42.4177 46.0143 42.0325 51.0527 41.4223 53.1314Z" fill="white"/>
<path d="M33.8713 47.065C35.2901 44.5019 37.8188 42.9077 38.9058 42.4309L40.9654 45.4059L41.7663 48.7813L41.3658 52.7288H40.6793L37.7044 51.6418L33.0703 50.6692V49.5822C37.281 49.033 35.3587 47.6752 33.8713 47.065Z" fill="black"/>
<path d="M23.4019 49.7576C24.0427 46.0046 27.8071 41.8053 29.6379 40.3179C26.6057 40.9472 22.8413 45.833 21.2852 51.6455C25.1755 50.4098 30.3816 50.2916 32.4984 50.3869C28.9742 48.4189 24.9276 49.1855 23.4019 49.7576Z" fill="#E6E6E6"/>
</svg>
