<svg width="101" height="101" viewBox="0 0 101 101" fill="none" xmlns="http://www.w3.org/2000/svg">
<rect x="0.386719" y="0.625" width="100" height="100" rx="15" fill="#FF4AC1"/>
<path d="M78.7794 53.8927C70.1292 48.6751 60.2623 51.2991 56.4102 53.2634C60.1174 35.4137 69.7021 38.6556 74.031 42.5078C78.1044 47.7254 78.8939 52.2717 78.7794 53.8927Z" fill="white"/>
<path d="M70.5415 46.8526C72.0061 44.5184 73.669 43.3247 74.3174 43.0195L75.9765 45.1363L78.4938 50.7429L78.837 54.1184L75.29 52.2876L69.5117 50.7429V49.4271C73.5851 48.9237 71.8955 47.501 70.5415 46.8526Z" fill="black"/>
<path d="M59.0105 50.3475C59.3157 46.5561 62.641 42.1415 64.3066 40.5055C61.3902 41.3885 58.124 46.4868 57.099 52.4065C60.804 50.8471 65.6797 50.1741 68.1397 50.4029C64.5181 48.7411 60.4559 49.6489 59.0105 50.3475Z" fill="#E6E6E6"/>
<path d="M61.8477 29.1722C59.0563 28.6596 57.4242 26.5938 56.957 25.625C56.363 30.2205 57.3586 32.4543 57.9306 32.9968C59.662 35.5376 62.3091 35.7996 63.4162 35.613L66.1202 35.5129C66.1202 35.5129 66.1266 35.4809 66.2997 35.4906C68.8395 35.6326 70.694 35.982 71.3036 36.1431C75.172 36.8715 79.4591 39.8971 81.1192 41.3189C80.8252 35.0985 76.1595 32.0009 73.8634 31.2297C73.6033 30.8975 70.5389 30.4468 69.0392 30.2631C67.8051 30.113 64.639 29.6848 61.8477 29.1722Z" fill="black"/>
<path d="M38.9962 29.8114C41.819 29.518 43.6072 27.5857 44.1484 26.6562C44.3824 31.284 43.2157 33.4335 42.6032 33.9297C40.6789 36.3278 38.0195 36.3826 36.9303 36.1103L34.2423 35.7998C34.2423 35.7998 34.2384 35.7673 34.0651 35.7634C31.5219 35.707 29.6458 35.9109 29.0256 36.0239C25.1122 36.4485 20.6022 39.1307 18.8364 40.4187C19.6144 34.2402 24.5073 31.5157 26.8565 30.9259C27.1418 30.6149 30.232 30.4046 31.7414 30.3383C32.9835 30.2849 36.1734 30.1048 38.9962 29.8114Z" fill="black"/>
<path d="M63.6774 63.1583C50.908 71.0762 37.7039 66.8769 32.6693 63.7876C25.6897 60.641 24.2213 66.1332 24.5455 68.0784C25.4151 70.1379 27.2725 71.4919 28.0925 71.9115C51.4344 79.8294 66.7668 73.2654 71.5152 68.9937C75.2682 65.1034 72.4688 62.7196 70.5999 62.0141C68.4488 61.0987 65.0886 62.3955 63.6774 63.1583Z" fill="black"/>
<path d="M34.0411 70.0237C29.8762 68.1929 28.3201 64.6462 28.1484 63.4447C31.4666 63.2159 31.7908 64.1122 32.7825 64.4745C33.4118 64.9322 38.0649 66.7436 40.3915 67.392C44.1902 68.4904 49.9075 68.1169 52.4629 67.7927C57.772 67.152 61.2733 65.2183 63.3329 63.9595C65.6785 62.2433 68.7106 62.0715 70.3125 62.4147C69.3056 65.71 67.1469 67.3157 66.1362 67.7925C53.6414 73.7881 39.5333 71.7781 34.0411 70.0237Z" fill="white"/>
<path d="M33.1823 70.3685C31.855 70.1854 29.6353 70.9787 28.6055 71.6271C32.45 72.5882 34.3837 73.3295 38.2168 74.2587C43.7662 75.604 54.5981 75.2886 58.0116 74.4876C62.8745 73.515 68.3095 70.8833 70.884 69.0526C69.0533 67.6795 67.1081 68.1373 66.1927 68.3661C52.8284 74.5906 38.6173 72.2946 33.1823 70.3685Z" fill="white"/>
<path d="M41.4223 52.915C34.0078 49.1163 24.4498 50.7983 20.5977 52.1141C25.6322 35.2256 35.0147 38.5171 39.0766 42.2739C42.4177 45.798 42.0325 50.8364 41.4223 52.915Z" fill="white"/>
<path d="M33.8713 46.8486C35.2901 44.2856 37.8188 42.6914 38.9058 42.2146L40.9654 45.1895L41.7663 48.565L41.3658 52.5125H40.6793L37.7044 51.4255L33.0703 50.4529V49.3659C37.281 48.8167 35.3587 47.4589 33.8713 46.8486Z" fill="black"/>
<path d="M23.4019 49.5413C24.0427 45.7883 27.8071 41.589 29.6379 40.1016C26.6057 40.7309 22.8413 45.6167 21.2852 51.4292C25.1755 50.1935 30.3816 50.0753 32.4984 50.1706C28.9742 48.2026 24.9276 48.9692 23.4019 49.5413Z" fill="#E6E6E6"/>
</svg>
