<svg width="101" height="101" viewBox="0 0 101 101" fill="none" xmlns="http://www.w3.org/2000/svg">
<rect x="0.386719" y="0.733154" width="100" height="100" rx="15" fill="#55FF46"/>
<path d="M78.7794 54.0008C70.1292 48.7832 60.2623 51.4073 56.4102 53.3715C60.1174 35.5219 69.7021 38.7638 74.031 42.616C78.1044 47.8336 78.8939 52.3799 78.7794 54.0008Z" fill="white"/>
<path d="M70.5415 46.9608C72.0061 44.6266 73.669 43.4328 74.3174 43.1277L75.9765 45.2445L78.4938 50.8511L78.837 54.2265L75.29 52.3958L69.5117 50.8511V49.5353C73.5851 49.0318 71.8955 47.6092 70.5415 46.9608Z" fill="black"/>
<path d="M59.0105 50.4557C59.3157 46.6643 62.641 42.2497 64.3066 40.6137C61.3902 41.4967 58.124 46.5949 57.099 52.5147C60.804 50.9552 65.6797 50.2822 68.1397 50.5111C64.5181 48.8493 60.4559 49.757 59.0105 50.4557Z" fill="#E6E6E6"/>
<path d="M61.8477 29.2804C59.0563 28.7677 57.4242 26.702 56.957 25.7332C56.363 30.3286 57.3586 32.5625 57.9306 33.105C59.662 35.6458 62.3091 35.9077 63.4162 35.7211L66.1202 35.6211C66.1202 35.6211 66.1266 35.589 66.2997 35.5987C68.8395 35.7407 70.694 36.0902 71.3036 36.2512C75.172 36.9796 79.4591 40.0053 81.1192 41.427C80.8252 35.2066 76.1595 32.109 73.8634 31.3378C73.6033 31.0056 70.5389 30.555 69.0392 30.3712C67.8051 30.2212 64.639 29.793 61.8477 29.2804Z" fill="black"/>
<path d="M38.9962 29.9195C41.819 29.6261 43.6072 27.6939 44.1484 26.7644C44.3824 31.3922 43.2157 33.5416 42.6032 34.0379C40.6789 36.436 38.0195 36.4908 36.9303 36.2184L34.2423 35.9079C34.2423 35.9079 34.2384 35.8754 34.0651 35.8716C31.5219 35.8152 29.6458 36.019 29.0256 36.132C25.1122 36.5567 20.6022 39.2389 18.8364 40.5269C19.6144 34.3483 24.5073 31.6239 26.8565 31.034C27.1418 30.7231 30.232 30.5127 31.7414 30.4464C32.9835 30.3931 36.1734 30.213 38.9962 29.9195Z" fill="black"/>
<path d="M63.6774 63.2664C50.908 71.1843 37.7039 66.9851 32.6693 63.8957C25.6897 60.7491 24.2213 66.2414 24.5455 68.1865C25.4151 70.2461 27.2725 71.6001 28.0925 72.0196C51.4344 79.9375 66.7668 73.3736 71.5152 69.1019C75.2682 65.2116 72.4688 62.8278 70.5999 62.1222C68.4488 61.2068 65.0886 62.5036 63.6774 63.2664Z" fill="black"/>
<path d="M34.0411 70.1318C29.8762 68.3011 28.3201 64.7543 28.1484 63.5529C31.4666 63.3241 31.7908 64.2204 32.7825 64.5827C33.4118 65.0404 38.0649 66.8517 40.3915 67.5001C44.1902 68.5986 49.9075 68.2251 52.4629 67.9009C57.772 67.2602 61.2733 65.3264 63.3329 64.0677C65.6785 62.3515 68.7106 62.1797 70.3125 62.5229C69.3056 65.8182 67.1469 67.4239 66.1362 67.9006C53.6414 73.8963 39.5333 71.8863 34.0411 70.1318Z" fill="white"/>
<path d="M33.1823 70.4766C31.855 70.2936 29.6353 71.0869 28.6055 71.7353C32.45 72.6964 34.3837 73.4376 38.2168 74.3669C43.7662 75.7122 54.5981 75.3967 58.0116 74.5958C62.8745 73.6231 68.3095 70.9915 70.884 69.1607C69.0533 67.7877 67.1081 68.2454 66.1927 68.4743C52.8284 74.6988 38.6173 72.4027 33.1823 70.4766Z" fill="white"/>
<path d="M41.4223 53.0232C34.0078 49.2244 24.4498 50.9064 20.5977 52.2223C25.6322 35.3337 35.0147 38.6252 39.0766 42.382C42.4177 45.9062 42.0325 50.9445 41.4223 53.0232Z" fill="white"/>
<path d="M33.8713 46.9568C35.2901 44.3938 37.8188 42.7995 38.9058 42.3228L40.9654 45.2977L41.7663 48.6731L41.3658 52.6206H40.6793L37.7044 51.5336L33.0703 50.5611V49.4741C37.281 48.9248 35.3587 47.567 33.8713 46.9568Z" fill="black"/>
<path d="M23.4019 49.6494C24.0427 45.8964 27.8071 41.6972 29.6379 40.2097C26.6057 40.839 22.8413 45.7248 21.2852 51.5374C25.1755 50.3016 30.3816 50.1834 32.4984 50.2788C28.9742 48.3107 24.9276 49.0773 23.4019 49.6494Z" fill="#E6E6E6"/>
</svg>
